<svg class="scroll-to-top hidden" xmlns="http://www.w3.org/2000/svg" viewBox="0 0 80 80" style="isolation:isolate">
  <circle cx="40" cy="40" r="40" fill="#fff" vector-effect="non-scaling-stroke"/>
  <path class="arrow" fill-rule="evenodd" d="M40 80c21.681 0 40-18.319 40-40S61.681 0 40 0 0 18.319 0 40s18.319 40 40 40zm0-76.19c19.618 0 36.19 16.572 36.19 36.19S59.618 76.19 40 76.19 3.81 59.618 3.81 40 20.382 3.81 40 3.81zm-.501 28.505l13.987 14.161a1.75 1.75 0 0 0 2.495-.002c.694-.703.69-1.829.001-2.526L40.746 28.522a1.746 1.746 0 0 0-2.494 0L23.015 43.948a1.803 1.803 0 0 0 .002 2.526 1.745 1.745 0 0 0 2.495.002l13.987-14.161z"/>
</svg>